{
  "accessors": [
    {
      "bufferView": 2,
      "componentType": 5126,
      "count": 1146,
      "max": [
        36.06235885620117,
        27.199058532714844,
        18.904987335205078
      ],
      "min": [
        -36.087345123291016,
        -35.68126678466797,
        -14.266544342041016
      ],
      "type": "VEC3"
    },
    {
      "bufferView": 2,
      "byteOffset": 13752,
      "componentType": 5126,
      "count": 1146,
      "max": [
        0.9994618892669678,
        0.9986792206764221,
        0.9996526837348938
      ],
      "min": [
        -0.9996021389961243,
        -0.9932079911231995,
        -0.9996681213378906
      ],
      "type": "VEC3"
    },
    {
      "bufferView": 3,
      "componentType": 5126,
      "count": 1146,
      "max": [
        0.9999992847442627,
        0.9986380338668823,
        0.997736930847168,
        1.0
      ],
      "min": [
        -0.9999785423278809,
        -0.9981193542480469,
        -0.9997419714927673,
        -1.0
      ],
      "type": "VEC4"
    },
    {
      "bufferView": 1,
      "componentType": 5126,
      "count": 1146,
      "max": [
        0.9848189949989319,
        0.9817789793014526
      ],
      "min": [
        0.018658999353647232,
        0.01750900037586689
      ],
      "type": "VEC2"
    },
    {
      "bufferView": 0,
      "componentType": 5125,
      "count": 6132,
      "type": "SCALAR"
    },
    {
      "bufferView": 2,
      "byteOffset": 27504,
      "componentType": 5126,
      "count": 1146,
      "max": [
        36.06235885620117,
        27.199058532714844,
        18.904987335205078
      ],
      "min": [
        -36.087345123291016,
        -35.68126678466797,
        -14.266544342041016
      ],
      "type": "VEC3"
    },
    {
      "bufferView": 2,
      "byteOffset": 41256,
      "componentType": 5126,
      "count": 1146,
      "max": [
        0.9994618892669678,
        0.9986792206764221,
        0.9996526837348938
      ],
      "min": [
        -0.9996021389961243,
        -0.9932079911231995,
        -0.9996681213378906
      ],
      "type": "VEC3"
    },
    {
      "bufferView": 3,
      "byteOffset": 18336,
      "componentType": 5126,
      "count": 1146,
      "max": [
        0.9999992847442627,
        0.9986380338668823,
        0.997736930847168,
        1.0
      ],
      "min": [
        -0.9999785423278809,
        -0.9981193542480469,
        -0.9997419714927673,
        -1.0
      ],
      "type": "VEC4"
    },
    {
      "bufferView": 1,
      "byteOffset": 9168,
      "componentType": 5126,
      "count": 1146,
      "max": [
        0.9848189949989319,
        0.9817789793014526
      ],
      "min": [
        0.018658999353647232,
        0.01750900037586689
      ],
      "type": "VEC2"
    },
    {
      "bufferView": 0,
      "byteOffset": 24528,
      "componentType": 5125,
      "count": 6132,
      "type": "SCALAR"
    },
    {
      "bufferView": 2,
      "byteOffset": 55008,
      "componentType": 5126,
      "count": 1146,
      "max": [
        36.06235885620117,
        27.199058532714844,
        18.904987335205078
      ],
      "min": [
        -36.087345123291016,
        -35.68126678466797,
        -14.266544342041016
      ],
      "type": "VEC3"
    },
    {
      "bufferView": 2,
      "byteOffset": 68760,
      "componentType": 5126,
      "count": 1146,
      "max": [
        0.9994618892669678,
        0.9986792206764221,
        0.9996526837348938
      ],
      "min": [
        -0.9996021389961243,
        -0.9932079911231995,
        -0.9996681213378906
      ],
      "type": "VEC3"
    },
    {
      "bufferView": 3,
      "byteOffset": 36672,
      "componentType": 5126,
      "count": 1146,
      "max": [
        0.9999992847442627,
        0.9986380338668823,
        0.997736930847168,
        1.0
      ],
      "min": [
        -0.9999785423278809,
        -0.9981193542480469,
        -0.9997419714927673,
        -1.0
      ],
      "type": "VEC4"
    },
    {
      "bufferView": 1,
      "byteOffset": 18336,
      "componentType": 5126,
      "count": 1146,
      "max": [
        0.9848189949989319,
        0.9817789793014526
      ],
      "min": [
        0.018658999353647232,
        0.01750900037586689
      ],
      "type": "VEC2"
    },
    {
      "bufferView": 0,
      "byteOffset": 49056,
      "componentType": 5125,
      "count": 6132,
      "type": "SCALAR"
    }
  ],
  "asset": {
    "extras": {
      "author": "Angerenage (https://sketchfab.com/ange_renage)",
      "license": "CC-BY-4.0 (http://creativecommons.org/licenses/by/4.0/)",
      "source": "https://sketchfab.com/3d-models/t-shirt-wankil-brode-3232348fabd144efb76aa2dda53d8f7f",
      "title": "T-shirt Wankil brodé"
    },
    "generator": "Sketchfab-12.68.0",
    "version": "2.0"
  },
  "bufferViews": [
    {
      "buffer": 0,
      "byteLength": 73584,
      "name": "floatBufferViews",
      "target": 34963
    },
    {
      "buffer": 0,
      "byteLength": 27504,
      "byteOffset": 73584,
      "byteStride": 8,
      "name": "floatBufferViews",
      "target": 34962
    },
    {
      "buffer": 0,
      "byteLength": 82512,
      "byteOffset": 101088,
      "byteStride": 12,
      "name": "floatBufferViews",
      "target": 34962
    },
    {
      "buffer": 0,
      "byteLength": 55008,
      "byteOffset": 183600,
      "byteStride": 16,
      "name": "floatBufferViews",
      "target": 34962
    }
  ],
  "buffers": [
    {
      "byteLength": 238608,
      "uri": "scene.bin"
    }
  ],
  "images": [
    {
      "uri": "textures/T-shirt_bleu_marine_baseColor.png"
    },
    {
      "uri": "textures/T-shirt_bleu_marine_normal.png"
    },
    {
      "uri": "textures/T-shirt_rose_baseColor.png"
    },
    {
      "uri": "textures/T-shirt_bordeaux_baseColor.png"
    }
  ],
  "materials": [
    {
      "doubleSided": true,
      "name": "T-shirt_bleu_marine",
      "normalTexture": {
        "index": 1
      },
      "pbrMetallicRoughness": {
        "baseColorTexture": {
          "index": 0
        },
        "metallicFactor": 0.0
      }
    },
    {
      "doubleSided": true,
      "name": "T-shirt_rose",
      "normalTexture": {
        "index": 1
      },
      "pbrMetallicRoughness": {
        "baseColorTexture": {
          "index": 2
        },
        "metallicFactor": 0.0
      }
    },
    {
      "doubleSided": true,
      "name": "T-shirt_bordeaux",
      "normalTexture": {
        "index": 1
      },
      "pbrMetallicRoughness": {
        "baseColorTexture": {
          "index": 3
        },
        "metallicFactor": 0.0
      }
    }
  ],
  "meshes": [
    {
      "name": "T shirt bleu marine _T-shirt bleu marine_0",
      "primitives": [
        {
          "attributes": {
            "NORMAL": 1,
            "POSITION": 0,
            "TANGENT": 2,
            "TEXCOORD_0": 3
          },
          "indices": 4,
          "material": 0,
          "mode": 4
        }
      ]
    },
    {
      "name": "T shirt rose_T-shirt rose_0",
      "primitives": [
        {
          "attributes": {
            "NORMAL": 6,
            "POSITION": 5,
            "TANGENT": 7,
            "TEXCOORD_0": 8
          },
          "indices": 9,
          "material": 1,
          "mode": 4
        }
      ]
    },
    {
      "name": "T shirt bordeaux_T-shirt bordeaux_0",
      "primitives": [
        {
          "attributes": {
            "NORMAL": 11,
            "POSITION": 10,
            "TANGENT": 12,
            "TEXCOORD_0": 13
          },
          "indices": 14,
          "material": 2,
          "mode": 4
        }
      ]
    }
  ],
  "nodes": [
    {
      "children": [
        1
      ],
      "matrix": [
        1.0,
        0.0,
        0.0,
        0.0,
        0.0,
        2.220446049250313e-16,
        -1.0,
        0.0,
        0.0,
        1.0,
        2.220446049250313e-16,
        0.0,
        0.0,
        0.0,
        0.0,
        1.0
      ],
      "name": "Sketchfab_model"
    },
    {
      "children": [
        2
      ],
      "matrix": [
        1.0,
        0.0,
        0.0,
        0.0,
        0.0,
        0.0,
        1.0,
        0.0,
        0.0,
        -1.0,
        0.0,
        0.0,
        0.0,
        0.0,
        0.0,
        1.0
      ],
      "name": "8af0924b48544018bbe7a3e52c87ddca.fbx"
    },
    {
      "children": [
        3,
        5,
        7
      ],
      "name": "RootNode"
    },
    {
      "children": [
        4
      ],
      "matrix": [
        100.0,
        0.0,
        0.0,
        0.0,
        0.0,
        99.99999999999866,
        1.6292067073209114e-05,
        0.0,
        0.0,
        -1.6292067073209114e-05,
        99.99999999999866,
        0.0,
        -9900.2626953125,
        0.0,
        0.0,
        1.0
      ],
      "name": "T shirt bleu marine "
    },
    {
      "mesh": 0,
      "name": "T shirt bleu marine _T-shirt bleu marine_0"
    },
    {
      "children": [
        6
      ],
      "matrix": [
        100.0,
        0.0,
        0.0,
        0.0,
        0.0,
        99.99999999999866,
        1.6292067073209114e-05,
        0.0,
        0.0,
        -1.6292067073209114e-05,
        99.99999999999866,
        0.0,
        9929.490234375,
        0.0,
        0.0,
        1.0
      ],
      "name": "T shirt rose"
    },
    {
      "mesh": 1,
      "name": "T shirt rose_T-shirt rose_0"
    },
    {
      "children": [
        8
      ],
      "matrix": [
        100.0,
        0.0,
        0.0,
        0.0,
        0.0,
        99.99999999999866,
        1.6292067073209114e-05,
        0.0,
        0.0,
        -1.6292067073209114e-05,
        99.99999999999866,
        0.0,
        0.0,
        0.0,
        0.0,
        1.0
      ],
      "name": "T shirt bordeaux"
    },
    {
      "mesh": 2,
      "name": "T shirt bordeaux_T-shirt bordeaux_0"
    }
  ],
  "samplers": [
    {
      "magFilter": 9729,
      "minFilter": 9987,
      "wrapS": 10497,
      "wrapT": 10497
    }
  ],
  "scene": 0,
  "scenes": [
    {
      "name": "Sketchfab_Scene",
      "nodes": [
        0
      ]
    }
  ],
  "textures": [
    {
      "sampler": 0,
      "source": 0
    },
    {
      "sampler": 0,
      "source": 1
    },
    {
      "sampler": 0,
      "source": 2
    },
    {
      "sampler": 0,
      "source": 3
    }
  ]
}
